<?xml version="1.0" standalone="no"?>
<!DOCTYPE svg PUBLIC "-//W3C//DTD SVG 20010904//EN"
 "http://www.w3.org/TR/2001/REC-SVG-20010904/DTD/svg10.dtd">
<svg version="1.0" xmlns="http://www.w3.org/2000/svg"
 width="1186.000000pt" height="1186.000000pt" viewBox="0 0 1186.000000 1186.000000"
 preserveAspectRatio="xMidYMid meet">
<metadata>
Created by potrace 1.16, written by Peter Selinger 2001-2019
</metadata>
<g transform="translate(0.000000,1186.000000) scale(0.100000,-0.100000)"
fill="#000000" stroke="none">
<path d="M5660 9963 c-201 -6 -483 -41 -739 -92 -610 -122 -1177 -377 -1661
-745 -346 -263 -667 -602 -893 -941 -37 -55 -75 -111 -85 -125 -60 -81 -237
-422 -308 -592 -35 -85 -112 -301 -130 -363 -7 -27 -29 -106 -49 -175 -164
-583 -200 -1259 -99 -1885 108 -672 364 -1269 778 -1815 112 -147 187 -234
346 -396 422 -429 893 -739 1450 -953 214 -83 531 -171 700 -196 43 -6 47 -4
85 34 21 23 36 41 33 41 -23 0 -286 57 -398 86 -292 75 -630 213 -930 379 -70
39 -86 49 -230 145 -134 89 -143 96 -255 185 -495 395 -862 844 -1125 1380
-225 456 -336 851 -396 1405 -24 216 -24 653 -1 850 55 457 140 809 284 1175
67 170 216 472 288 585 16 25 49 77 74 115 141 219 346 468 543 660 172 168
267 248 453 382 55 40 105 76 110 80 6 5 73 46 150 93 499 299 1044 484 1635
554 69 9 145 18 170 21 103 13 598 13 735 0 736 -69 1333 -273 1906 -650 86
-57 162 -109 170 -117 8 -7 40 -32 72 -56 221 -165 495 -437 698 -692 454
-573 735 -1241 825 -1959 l6 -54 44 45 45 44 -26 149 c-67 397 -190 773 -371
1135 -46 91 -94 182 -108 203 -14 21 -26 40 -26 43 0 3 -22 39 -50 81 -27 42
-50 77 -50 79 0 5 -113 164 -158 223 -191 251 -458 528 -692 717 -128 103
-169 134 -325 239 -250 170 -568 327 -925 455 -126 46 -361 106 -580 149 -273
54 -668 83 -990 74z"/>
<path d="M8492 7189 c-24 -12 -48 -31 -52 -43 -5 -12 -14 -208 -20 -436 -22
-802 -111 -1575 -226 -1942 -44 -143 -117 -279 -187 -351 -80 -82 -139 -111
-238 -115 -164 -8 -224 65 -339 418 -150 458 -254 967 -305 1490 -14 150 -35
525 -35 642 0 50 -3 60 -25 74 -38 25 -106 29 -143 10 -63 -32 -63 -33 -73
-403 -19 -752 -84 -1242 -215 -1628 -101 -299 -254 -465 -428 -465 -122 0
-186 61 -226 216 -28 112 -106 573 -190 1133 -91 605 -143 866 -234 1191 -41
147 -60 170 -132 170 -47 0 -100 -22 -121 -49 -19 -25 -15 -67 13 -160 48
-157 114 -473 169 -811 31 -184 87 -524 126 -755 124 -734 133 -776 196 -897
50 -96 94 -142 170 -180 59 -29 78 -33 168 -36 173 -7 295 46 422 181 115 123
195 274 272 512 77 237 130 536 149 835 l7 125 18 -185 c51 -517 117 -874 208
-1137 119 -341 233 -444 478 -430 182 10 317 65 436 178 209 199 326 511 419
1119 66 429 112 1115 104 1565 l-3 180 -60 3 c-46 2 -70 -3 -103 -19z"/>
<path d="M4090 7129 c-152 -28 -307 -65 -420 -101 -212 -68 -451 -199 -466
-254 -5 -20 4 -114 26 -269 19 -135 40 -372 51 -583 16 -287 3 -529 -48 -913
-3 -25 0 -39 13 -50 24 -20 102 -15 157 9 54 24 57 33 81 212 50 363 36 942
-33 1465 -10 77 -16 144 -13 149 9 15 224 113 317 144 377 125 637 99 802 -80
218 -238 179 -563 -101 -844 -135 -135 -296 -229 -456 -263 -130 -28 -146 -33
-162 -48 -10 -9 -18 -27 -18 -40 0 -31 33 -43 118 -43 98 0 222 -17 340 -46
193 -48 328 -118 443 -233 125 -124 189 -282 189 -462 0 -158 -42 -284 -135
-405 -96 -125 -258 -229 -405 -260 -91 -19 -282 -14 -405 11 -267 54 -525 189
-710 371 l-90 89 -55 -1 c-56 0 -123 -27 -150 -59 -20 -24 2 -57 100 -142 371
-327 896 -474 1349 -378 338 71 576 254 684 525 40 102 50 173 45 327 -4 117
-9 149 -31 212 -97 268 -370 460 -769 541 -32 6 -58 14 -58 18 0 4 36 24 79
45 89 43 220 128 294 190 117 98 216 253 256 397 26 91 28 248 6 333 -54 206
-215 362 -435 422 -77 21 -306 29 -390 14z"/>
<path d="M9921 6148 l1 -123 -61 -3 -61 -3 0 63 c0 35 -3 80 -6 101 -6 34 -9
37 -40 37 l-34 0 0 -99 0 -99 -54 -4 -54 -3 -6 44 c-3 24 -6 77 -6 117 l0 74
-41 0 -41 0 4 -160 c2 -87 7 -162 10 -165 4 -4 113 -4 242 1 l236 7 0 62 c0
34 -3 110 -7 168 l-6 107 -39 0 -39 0 2 -122z"/>
<path d="M9547 5572 c-36 -41 -60 -108 -61 -167 -1 -105 52 -165 145 -165 59
0 89 28 134 125 41 89 65 113 100 97 21 -10 25 -18 25 -54 0 -47 -30 -121 -61
-154 -19 -21 -19 -21 18 -47 l37 -27 23 28 c61 73 88 237 50 295 -30 47 -75
69 -130 64 -61 -5 -82 -25 -125 -117 -19 -41 -41 -83 -50 -92 -17 -21 -53 -23
-70 -6 -27 27 -8 121 36 171 14 16 14 19 -4 32 -41 32 -51 35 -67 17z"/>
<path d="M9381 4899 c-7 -23 -10 -43 -8 -45 4 -5 410 -120 441 -126 16 -2 22
6 32 40 10 33 10 44 1 47 -21 8 -443 125 -449 125 -3 0 -10 -18 -17 -41z"/>
<path d="M9272 4534 l-23 -46 136 -137 c74 -76 135 -139 135 -142 0 -2 -35 -2
-78 1 l-79 5 -78 83 c-73 78 -80 83 -92 65 -31 -42 -27 -58 34 -117 l58 -58
-50 6 c-27 4 -66 9 -85 12 -33 5 -37 2 -53 -32 -10 -20 -16 -38 -15 -40 2 -1
53 -8 113 -14 l110 -12 60 -59 c71 -70 85 -67 -168 -40 l-169 17 -19 -38 c-10
-20 -19 -41 -19 -46 0 -4 114 -15 253 -24 235 -15 253 -15 265 0 31 41 26 59
-40 132 -34 39 -64 74 -66 78 -1 4 44 4 100 1 87 -5 105 -3 116 10 35 44 30
53 -123 223 -81 90 -160 175 -174 191 l-27 27 -22 -46z"/>
<path d="M8454 3274 l-138 -146 27 -24 c16 -13 32 -24 37 -24 4 0 28 23 53 50
25 28 48 50 52 50 4 0 70 -61 148 -135 l141 -135 34 33 33 32 -146 140 -147
140 51 50 c28 27 51 54 50 60 0 5 -13 20 -28 32 l-29 23 -138 -146z"/>
<path d="M7987 2855 c-70 -52 -127 -98 -127 -102 0 -3 63 -91 141 -194 96
-128 145 -186 154 -181 27 16 254 187 255 192 0 3 -11 18 -24 35 l-24 29 -95
-72 -96 -72 -36 47 c-19 25 -35 49 -35 53 0 3 36 32 79 64 l80 59 -22 28 c-11
16 -23 29 -25 29 -3 0 -38 -25 -78 -55 -40 -30 -77 -55 -82 -55 -9 0 -47 45
-65 76 -3 6 32 40 83 79 50 37 90 71 90 76 0 4 -10 20 -23 34 l-22 26 -128
-96z"/>
<path d="M7409 2492 c-100 -52 -148 -164 -116 -272 19 -66 72 -132 131 -162
55 -30 145 -30 203 0 40 21 83 68 83 91 0 19 18 12 25 -9 6 -19 8 -19 38 -4
18 9 33 18 35 19 3 3 -96 205 -104 214 -5 6 -144 -60 -150 -71 -4 -6 10 -43
21 -56 2 -2 22 6 45 18 35 18 44 19 51 8 18 -29 -29 -110 -78 -133 -86 -41
-181 12 -213 120 -32 110 64 207 170 171 38 -13 38 -13 54 21 20 43 21 40 -14
58 -47 24 -120 19 -181 -13z"/>
<path d="M6657 2201 c-54 -16 -100 -30 -102 -33 -3 -2 25 -107 62 -232 l68
-228 30 6 c16 4 68 19 115 33 70 23 93 35 131 74 38 37 49 57 59 102 28 121
-49 266 -157 296 -57 16 -99 12 -206 -18z m203 -80 c37 -25 70 -97 70 -151 0
-50 -26 -102 -60 -120 -22 -12 -113 -41 -116 -37 -6 6 -84 278 -84 291 0 10
16 19 43 26 23 6 47 13 52 15 18 7 69 -6 95 -24z"/>
<path d="M6149 2095 c-3 -2 1 -64 9 -137 16 -163 11 -205 -29 -244 -24 -23
-39 -29 -74 -29 -47 0 -77 20 -101 67 -11 21 -43 247 -44 306 0 19 -79 16 -87
-4 -8 -22 16 -246 33 -305 19 -63 74 -125 122 -139 113 -31 221 12 263 105 22
47 24 113 8 272 l-12 113 -42 0 c-23 0 -44 -2 -46 -5z"/>
<path d="M5130 2063 c-1 -16 -9 -122 -19 -238 -10 -115 -18 -211 -17 -212 1
-1 62 -7 135 -14 100 -9 143 -9 171 0 102 31 122 152 36 222 -20 16 -20 16 2
28 50 27 67 112 32 168 -27 45 -41 50 -170 62 -170 16 -170 16 -170 -16z m251
-92 c25 -31 24 -47 -5 -76 -23 -23 -30 -24 -93 -18 -37 3 -70 7 -72 9 -2 2 0
29 4 60 l7 56 70 -4 c59 -3 73 -8 89 -27z m-9 -183 c38 -19 30 -97 -11 -113
-8 -3 -51 -3 -94 1 -74 6 -78 8 -73 28 3 11 6 40 6 64 l0 43 78 -7 c42 -4 85
-11 94 -16z"/>
</g>
</svg>
